<svg viewBox="0 0 48 48" xmlns="http://www.w3.org/2000/svg"><rect fill="none" height="33.92" rx="3" stroke="#231f20" stroke-miterlimit="10" stroke-width="2" width="33.92" x="7.04" y="7.04"/><g fill="#231f20"><path d="m18.3 16v16.67h-3.13v-16.67z"/><path d="m32.8 15v14.23 3.44h-2.8a12 12 0 0 1 -.14-1.45c-.65 1.08-1.79 1.78-3.7 1.78-3.16 0-5.16-2.58-5.16-6.41s2.12-6.6 5.6-6.6c1.92 0 2.88.72 3.18 1.32v-6.31zm-8.68 11.5c0 2.61 1.1 4 2.87 4 2.54 0 2.93-2 2.93-4.12 0-2.34-.39-4-2.82-4-1.93.04-2.98 1.56-2.98 4.12z"/></g></svg>