<svg clip-rule="evenodd" fill-rule="evenodd" stroke-linejoin="round" stroke-miterlimit="2" viewBox="0 0 512 512" xmlns="http://www.w3.org/2000/svg"><path d="m449.446 0c34.525 0 62.554 28.03 62.554 62.554v386.892c0 34.524-28.03 62.554-62.554 62.554h-260.214c10.837-18.276 24.602-44.144 30.094-65.264 3.331-12.822 17.073-65.143 17.073-65.143 8.934 17.04 35.04 31.465 62.807 31.465 82.652 0 142.199-76.005 142.199-170.448 0-90.528-73.876-158.265-168.937-158.265-118.259 0-181.063 79.384-181.063 165.827 0 40.192 21.397 90.228 55.623 106.161 5.192 2.415 7.969 1.351 9.164-3.666.909-3.809 5.53-22.421 7.612-31.077.665-2.767.336-5.147-1.901-7.86-11.323-13.729-20.394-38.983-20.394-62.536 0-60.438 45.767-118.921 123.739-118.921 67.317 0 114.465 45.875 114.465 111.485 0 74.131-37.438 125.487-86.146 125.487-26.9 0-47.034-22.243-40.579-49.52 7.727-32.575 22.696-67.726 22.696-91.239 0-21.047-11.295-38.601-34.673-38.601-27.5 0-49.585 28.448-49.585 66.551 0 24.27 8.198 40.685 8.198 40.685s-27.155 114.826-32.132 136.211c-5.51 23.659-3.352 56.982-.956 78.664l.011.004h-103.993c-34.524 0-62.554-28.03-62.554-62.554v-386.892c0-34.524 28.029-62.554 62.554-62.554h386.892z"/></svg>