<svg viewBox="0 0 48 48" xmlns="http://www.w3.org/2000/svg"><rect fill="none" height="33.92" rx="3" stroke="#231f20" stroke-miterlimit="10" stroke-width="2" width="33.92" x="7.04" y="7.04"/><g fill="#231f20"><path d="m14.84 27.78-1.41 4.06h-2.95l5.51-16h3.74l5.75 16h-3.16l-1.47-4.06zm5.34-2.48c-1.27-3.66-2-5.83-2.4-7.19-.4 1.49-1.24 4.07-2.26 7.19z"/><path d="m29.47 26.5c0 1.8.91 3.34 2.68 3.34a2.15 2.15 0 0 0 2.33-1.46h2.88a5.07 5.07 0 0 1 -5.29 3.74c-3.85 0-5.49-3-5.49-6 0-3.66 1.87-6.37 5.61-6.37 4 0 5.33 3 5.33 5.81a7.71 7.71 0 0 1 0 1zm5.17-1.82c0-1.58-.72-2.87-2.46-2.87s-2.48 1.19-2.64 2.87z"/></g></svg>